# xmcd
#
# Track frame offsets:
# 150
# 16056
# 36721
# 51236
# 66629
# 85233
# 102910
# 117402
# 138167
# 156734
# 174803
# 194547
# 215255
# 237364
# 256074
# 276473
# 293012
# 309402
# 326734
#
# Disc length: 4627 seconds
#
#
# Revision: 0
# Processed by: cddbd v1.5.2PL0 Copyright (c) Steve Scherf et al.
# Submitted via: FreeRIP 2.96 
#
DISCID=20121113
DTITLE=Renan e Ray vol.4 - 
DYEAR=1900
DGENRE=
TTITLE0=Sempre Tu
TTITLE1=Será Que Pensa Em Mim
TTITLE2=Você
TTITLE3=Coração Ferido
TTITLE4=Liguei Pra Te Ouvir
TTITLE5=Anjo Bom
TTITLE6=A Cor da Esperança
TTITLE7=Tá Difícil de Voltar
TTITLE8=Tudo Pro Ar
TTITLE9=Adeus
TTITLE10=Nosso Amor Onde Vai
TTITLE11=Vida Nova, Novo Amor
TTITLE12=Buscando Você
TTITLE13=Além do Sol, Além do Mar
TTITLE14=Desejos
TTITLE15=Grudada em Mim
TTITLE16=Vou Dormir Sem Seu Amor
TTITLE17=Marcas
TTITLE18=É Sempre Assim
EXTD=
EXTT0=
EXTT1=
EXTT2=
EXTT3=
EXTT4=
EXTT5=
EXTT6=
EXTT7=
EXTT8=
EXTT9=
EXTT10=
EXTT11=
EXTT12=
EXTT13=
EXTT14=
EXTT15=
EXTT16=
EXTT17=
EXTT18=
PLAYORDER=
